<?xml version="1.0" standalone="no"?>
<!DOCTYPE svg PUBLIC "-//W3C//DTD SVG 20010904//EN"
 "http://www.w3.org/TR/2001/REC-SVG-20010904/DTD/svg10.dtd">
<svg version="1.0" xmlns="http://www.w3.org/2000/svg"
 width="885.000000pt" height="885.000000pt" viewBox="0 0 885.000000 885.000000"
 preserveAspectRatio="xMidYMid meet">
<metadata>
Created by potrace 1.11, written by Peter Selinger 2001-2013
</metadata>
<g transform="translate(0.000000,885.000000) scale(0.100000,-0.100000)"
fill="#000000" stroke="none">
<path d="M1783 6706 c-70 -22 -146 -85 -179 -147 -16 -33 -57 -141 -169 -454
-47 -132 -90 -249 -95 -260 -4 -11 -34 -92 -65 -180 -31 -88 -72 -200 -90
-250 -18 -49 -66 -180 -105 -290 -39 -110 -77 -216 -85 -235 -7 -19 -84 -231
-170 -470 -86 -239 -160 -444 -165 -455 -21 -49 -213 -592 -214 -605 -1 -8 -4
-17 -7 -20 -11 -9 -48 -118 -42 -124 4 -3 1 -6 -5 -6 -7 0 -12 -8 -12 -18 0
-10 -3 -22 -7 -26 -4 -3 -8 -12 -9 -19 -1 -7 -19 -57 -39 -112 -20 -55 -43
-116 -50 -137 -7 -20 -11 -39 -8 -42 4 -3 1 -6 -6 -6 -8 0 -11 -7 -7 -15 3 -8
1 -15 -4 -15 -6 0 -10 -6 -10 -13 0 -6 -18 -58 -39 -115 -22 -56 -37 -102 -34
-102 3 0 0 -6 -6 -13 -6 -8 -8 -17 -4 -20 3 -4 2 -7 -4 -7 -5 0 -10 -6 -10
-12 -1 -7 -15 -51 -33 -98 -51 -135 -92 -254 -93 -267 0 -7 -4 -13 -9 -13 -4
0 -8 -5 -8 -10 0 -8 116 -10 368 -8 l367 3 75 37 c83 40 162 110 202 179 14
24 141 361 282 749 141 388 263 721 271 740 8 19 141 384 295 810 155 426 296
816 315 865 18 50 75 206 126 348 l94 259 49 -104 c212 -446 489 -990 625
-1228 24 -41 51 -89 61 -106 230 -402 382 -536 657 -577 85 -13 395 -15 483
-3 156 21 262 52 345 100 62 37 145 121 178 180 31 55 135 334 411 1101 70
193 129 356 132 364 3 10 12 4 29 -21 22 -32 185 -318 267 -468 17 -30 38 -68
48 -85 10 -16 29 -50 42 -75 14 -25 54 -97 90 -160 36 -63 76 -133 88 -155 12
-22 52 -92 88 -155 36 -63 76 -135 90 -160 50 -91 70 -126 92 -165 13 -22 56
-101 98 -175 41 -74 78 -139 82 -145 4 -5 20 -32 35 -60 139 -255 167 -292
253 -336 45 -23 57 -24 280 -27 127 -2 232 0 232 3 0 7 -7 20 -422 725 -157
267 -306 521 -332 565 -25 44 -51 87 -56 95 -6 8 -13 22 -17 30 -4 8 -17 32
-30 53 -13 21 -32 53 -42 70 -19 34 -136 231 -151 257 -72 118 -170 283 -170
286 0 2 -31 50 -69 106 -105 155 -176 221 -263 242 -15 3 -153 7 -307 7 -240
1 -284 -1 -314 -16 -50 -23 -77 -52 -99 -104 -11 -25 -23 -55 -28 -66 -14 -32
-180 -488 -265 -730 -42 -121 -81 -229 -85 -240 -9 -22 -55 -152 -90 -255 -12
-36 -29 -79 -36 -97 -8 -17 -14 -36 -14 -43 0 -7 -6 -26 -14 -43 -31 -73 -36
-89 -31 -98 4 -5 -1 -9 -9 -9 -23 0 -122 124 -246 307 -61 90 -110 165 -110
167 0 1 -36 65 -80 140 -124 211 -175 308 -397 756 -283 570 -375 730 -484
840 -98 99 -69 95 -654 97 -392 1 -520 -2 -552 -11z"/>
<path d="M8504 3482 c9 -36 60 -82 94 -83 64 -3 79 -3 107 3 39 8 85 54 85 84
0 22 -4 24 -50 24 -27 0 -50 -4 -50 -10 0 -15 -39 -32 -60 -25 -11 4 -20 12
-20 19 0 8 -19 13 -56 14 l-56 1 6 -27z"/>
<path d="M1720 3382 l-35 -3 0 -239 0 -240 22 -1 c13 -1 32 -1 43 -1 52 0 49
-7 52 148 l3 147 60 -86 c33 -48 67 -86 75 -86 8 0 42 39 75 87 l60 87 3 -147
c2 -145 3 -148 25 -149 12 0 32 -2 44 -3 44 -5 45 0 45 243 0 128 -3 235 -6
238 -3 3 -26 6 -51 7 l-47 2 -66 -98 c-37 -53 -70 -97 -74 -98 -3 0 -37 42
-75 94 -71 98 -80 104 -153 98z"/>
<path d="M2520 3382 l-35 -3 -98 -236 c-56 -137 -93 -239 -88 -243 6 -3 23 -5
38 -4 15 1 36 3 46 3 9 1 22 13 28 29 31 76 24 72 124 72 l91 0 25 -52 24 -52
53 1 c30 1 55 3 57 5 1 1 -41 108 -95 237 -103 249 -103 249 -170 243z m57
-266 c-5 -14 -87 -16 -87 -2 0 6 10 35 22 64 l22 53 23 -52 c13 -29 22 -57 20
-63z"/>
<path d="M2818 3382 c-26 -3 -28 -6 -28 -53 0 -54 -9 -49 95 -52 l50 -2 0
-187 c-1 -208 -5 -196 72 -189 l43 3 0 187 0 188 66 1 c37 1 68 3 71 5 2 3 5
26 6 51 2 45 1 46 -28 47 -109 3 -325 3 -347 1z"/>
<path d="M3325 3380 l-30 -5 0 -237 c0 -206 2 -238 15 -239 22 -1 253 -1 268
0 8 1 12 18 12 51 0 33 -4 50 -12 51 -7 0 -47 0 -89 0 l-77 0 -4 35 c-5 46 8
55 73 51 75 -5 84 2 83 60 l0 48 -77 -1 -77 0 0 42 0 43 81 -1 c47 0 84 4 88
10 7 12 6 81 -2 89 -7 6 -214 9 -252 3z"/>
<path d="M3760 3382 l-35 -3 0 -239 0 -240 22 -1 c13 -1 32 -1 43 -1 50 0 48
-6 47 142 0 77 1 142 4 144 3 3 31 -33 64 -80 33 -46 65 -84 72 -84 6 0 41 41
77 91 l65 91 3 -153 3 -154 50 3 c27 2 51 5 54 7 2 3 5 110 5 239 l1 234 -54
4 -54 3 -49 -70 c-27 -38 -57 -82 -66 -98 -9 -15 -21 -26 -27 -24 -5 2 -39 44
-75 94 -68 95 -77 101 -150 95z"/>
<path d="M4559 3382 l-35 -3 -98 -236 c-62 -151 -93 -238 -86 -243 12 -7 91
-3 99 6 3 3 13 24 22 47 l17 42 95 3 95 3 18 -50 c16 -45 20 -49 53 -53 20 -2
48 -1 62 2 l25 5 -77 185 c-42 102 -82 199 -89 215 -31 79 -35 82 -101 77z
m54 -256 c2 -18 -4 -21 -44 -21 l-47 0 20 50 c11 27 23 56 26 64 6 16 41 -58
45 -93z"/>
<path d="M4834 3381 c-2 -2 -4 -27 -4 -55 l0 -51 72 0 73 0 0 -187 c0 -104 3
-188 7 -189 5 -1 19 -1 33 -1 14 0 36 0 49 1 l25 1 0 138 c0 75 0 160 0 189
l1 52 66 0 c36 0 69 2 72 6 6 6 3 87 -4 94 -5 5 -384 7 -390 2z"/>
<path d="M5348 3382 c-15 -3 -16 -28 -17 -243 l-1 -239 52 0 53 0 99 140 c55
77 102 140 105 140 3 0 5 -63 4 -140 -1 -80 2 -140 8 -141 5 -1 20 -1 34 -1
14 0 35 0 48 1 l22 1 0 240 0 240 -51 0 -51 0 -102 -145 c-57 -80 -103 -145
-104 -145 -2 0 -2 65 -2 145 1 124 -1 145 -14 146 -9 0 -27 1 -41 2 -14 2 -32
1 -42 -1z"/>
<path d="M5907 3378 c-12 -7 -14 -164 -3 -222 7 -37 63 -95 94 -97 9 0 32 -2
49 -3 18 -1 49 3 68 10 l35 12 0 -89 c0 -64 4 -89 13 -90 6 -1 19 -2 27 -3 8
0 28 1 44 4 l29 5 0 231 c0 127 -2 235 -6 240 -3 5 -27 9 -54 8 l-48 -1 -3
-100 c-3 -96 -4 -101 -28 -112 -34 -15 -65 -13 -89 5 -17 12 -21 30 -25 111
l-5 96 -43 1 c-24 1 -49 -2 -55 -6z"/>
<path d="M6453 3382 c-18 -2 -33 -6 -34 -10 0 -4 -1 -112 -2 -240 -1 -149 2
-232 8 -233 58 -3 277 -1 281 3 3 3 6 27 7 52 2 52 10 49 -116 47 l-68 -1 3
42 3 43 66 1 c36 0 70 3 76 7 5 3 9 28 9 54 l-1 48 -75 0 -75 0 -3 42 -3 42
53 0 c29 -1 70 0 91 0 l37 1 0 50 c0 33 -4 50 -12 51 -57 3 -219 3 -245 1z"/>
<path d="M6938 3362 c-148 -73 -166 -328 -31 -423 86 -60 216 -65 299 -12 l22
14 -20 42 c-11 23 -21 43 -23 45 -1 1 -16 -5 -33 -14 -109 -54 -224 21 -216
140 7 104 90 152 198 116 34 -12 38 -10 64 34 23 39 20 45 -42 71 -56 24 -157
18 -218 -13z"/>
<path d="M7385 3380 l-50 -5 0 -235 0 -235 30 -5 c16 -3 42 -4 56 -2 l27 4 1
101 c1 56 3 102 5 104 2 2 36 -43 76 -99 40 -57 74 -105 76 -107 4 -5 134 -4
139 1 2 2 -39 59 -91 128 -51 69 -93 128 -91 132 1 4 39 52 85 107 45 56 82
104 82 108 0 5 -15 7 -32 6 -18 -1 -48 -2 -65 -2 -29 -1 -40 -11 -104 -96 -39
-52 -74 -95 -78 -95 -3 0 -5 42 -3 94 2 52 0 96 -5 98 -4 2 -31 1 -58 -2z"/>
<path d="M7880 3382 l-35 -3 0 -239 c0 -185 3 -240 12 -241 7 -1 24 -1 38 -1
14 0 31 0 39 1 7 1 26 20 42 44 16 23 34 47 40 54 6 6 37 50 69 97 32 47 61
86 64 86 3 0 6 -62 6 -137 l0 -138 30 -5 c16 -3 43 -4 58 -1 l28 3 -2 239 c-1
237 -1 239 -22 240 -12 0 -34 2 -48 3 -23 1 -39 -16 -129 -141 -56 -79 -105
-143 -109 -143 -3 0 -5 63 -5 139 2 156 5 150 -76 143z"/>
<path d="M8475 3382 l-50 -3 0 -239 c0 -185 3 -240 12 -241 7 -1 22 -1 33 -1
11 0 28 0 38 1 12 1 56 54 121 146 56 80 103 145 104 145 2 0 2 -65 2 -145 -1
-124 1 -145 15 -146 8 0 25 -2 36 -3 12 -1 30 1 41 5 20 7 20 16 20 243 l0
236 -51 0 -51 0 -98 -140 c-54 -77 -101 -140 -105 -140 -4 0 -6 63 -5 140 1
77 -2 141 -5 142 -4 2 -30 2 -57 0z"/>
<path d="M1908 2651 c-3 -20 -9 -25 -43 -28 -22 -2 -63 -15 -91 -29 -65 -33
-95 -82 -96 -157 -2 -104 55 -168 171 -190 56 -11 61 -14 61 -38 0 -25 21 -45
34 -32 3 4 6 19 6 35 0 20 5 28 18 29 27 1 64 8 99 20 125 41 164 207 70 301
-34 34 -100 58 -179 67 -5 1 -8 12 -8 25 0 34 -38 32 -42 -3z m2 -217 l0 -157
-40 6 c-104 14 -165 86 -148 176 11 59 51 99 114 117 27 7 55 13 62 13 9 1 12
-37 12 -155z m163 124 c48 -24 76 -81 71 -141 -7 -73 -60 -121 -147 -133 l-46
-7 1 157 1 157 41 -7 c22 -3 58 -15 79 -26z"/>
<path d="M2382 2497 c-40 -95 -86 -203 -102 -240 -26 -59 -27 -69 -14 -74 19
-7 25 2 61 87 15 36 32 68 37 72 5 3 58 7 117 7 l107 0 33 -77 c18 -42 33 -78
34 -80 5 -6 45 -10 45 -4 0 3 -46 113 -102 244 -86 198 -106 238 -123 238 -16
-1 -33 -32 -93 -173z m142 4 c26 -57 44 -106 41 -109 -5 -5 -176 -5 -181 1 -2
2 17 51 43 110 26 59 48 106 49 104 1 -1 23 -49 48 -106z"/>
<path d="M2826 2433 c1 -131 2 -241 3 -245 0 -4 10 -6 20 -5 19 1 19 12 20
244 l0 243 -22 0 -22 0 1 -237z"/>
<path d="M3001 2555 c-127 -130 -124 -110 -39 -200 25 -27 71 -76 101 -109 35
-38 64 -60 81 -61 24 -3 25 -2 12 17 -8 11 -49 57 -93 102 -43 45 -89 94 -103
109 l-24 28 114 114 c100 100 111 115 89 115 -19 0 -53 -28 -138 -115z"/>
<path d="M3233 2658 c2 -7 52 -91 111 -187 105 -173 105 -174 89 -202 -19 -32
-57 -52 -83 -44 -25 8 -37 -15 -16 -30 23 -17 72 -11 98 11 11 11 36 51 54 89
73 158 164 360 164 367 0 5 -8 8 -18 8 -14 0 -35 -37 -87 -156 -38 -85 -72
-157 -76 -160 -4 -2 -49 67 -101 154 -73 122 -99 158 -118 160 -16 3 -21 0
-17 -10z"/>
<path d="M3809 2648 c-1 -13 -2 -41 -4 -63 -10 -194 -55 -355 -99 -355 -18 0
-30 -30 -17 -43 13 -13 60 12 82 43 31 42 58 169 74 345 2 17 3 36 4 43 1 9
28 12 101 12 l100 0 0 -223 c0 -216 1 -223 20 -224 19 -2 20 4 20 243 l0 244
-140 0 c-138 0 -140 0 -141 -22z"/>
<path d="M4277 2663 c-2 -5 -3 -114 -3 -243 l1 -235 90 0 c71 0 99 5 130 21
53 28 79 73 77 136 -2 95 -63 138 -199 142 l-58 1 0 93 c0 80 -2 92 -17 92 -9
0 -19 -3 -21 -7z m201 -237 c40 -20 56 -57 49 -108 -9 -70 -55 -97 -160 -94
l-52 1 -1 100 c0 55 1 103 3 108 7 13 133 8 161 -7z"/>
<path d="M4580 2650 c0 -19 6 -20 89 -20 l89 0 -1 -219 c-2 -202 -1 -220 15
-225 10 -2 20 -1 22 2 2 4 4 99 4 212 0 113 1 211 1 218 1 9 26 12 90 12 79 0
89 2 87 18 -3 15 -21 17 -199 20 -192 2 -197 2 -197 -18z"/>
<path d="M5092 2428 l3 -243 125 -1 c137 0 150 2 150 22 0 15 -1 15 -141 16
l-97 0 0 94 0 94 104 0 c97 0 104 1 104 20 0 19 -7 20 -104 20 l-104 0 0 90
-1 90 114 0 c108 0 115 1 115 20 0 19 -7 20 -135 20 l-135 0 2 -242z"/>
<path d="M5450 2650 c0 -19 7 -20 90 -20 l90 0 0 -224 c0 -219 1 -225 20 -223
23 1 22 -15 21 255 l-1 192 90 0 c83 0 90 1 90 20 0 19 -7 20 -200 20 -193 0
-200 -1 -200 -20z"/>
<path d="M6032 2440 l-1 -160 162 0 162 0 0 160 0 160 -161 0 -162 0 0 -160z"/>
<path d="M6797 2578 c-27 -43 -167 -289 -167 -293 0 -3 81 -5 181 -5 143 0
180 3 176 13 -2 7 -43 79 -90 161 -83 144 -86 147 -100 124z"/>
<path d="M7351 2579 c-62 -38 -81 -70 -81 -140 0 -63 33 -117 87 -141 134 -59
265 54 221 192 -29 95 -144 140 -227 89z"/>
<path d="M7882 2440 l1 -160 161 0 161 0 0 160 0 160 -161 0 -162 0 0 -160z"/>
<path d="M8633 2553 c-15 -26 -32 -55 -38 -65 -5 -10 -34 -58 -62 -108 -29
-50 -53 -93 -53 -95 0 -3 81 -5 180 -5 99 0 180 2 180 5 0 6 -31 65 -59 110
-10 17 -41 70 -69 118 l-50 88 -29 -48z"/>
</g>
</svg>
